<svg width="40" height="40" viewBox="0 0 40 40" fill="none" xmlns="http://www.w3.org/2000/svg">
<path d="M11.3554 4.83195C11.9586 3.4916 12.7084 2.17892 13.6073 1.04317C6.14922 3.55695 0.658979 10.3486 0.0545788 18.5L2.70946 18.5C5.94937 18.5 8.55188 15.9139 9.07853 12.7171C9.564 9.77031 10.3406 7.087 11.3554 4.83195Z" fill="white"/>
<path d="M17.2276 18.5C13.8355 18.5 11.0606 15.6701 11.6837 12.3357C13.037 5.09328 16.2504 2.07404e-06 19.9992 1.74631e-06C24.7427 1.33162e-06 28.6291 8.1549 28.9742 18.5L17.2276 18.5Z" fill="white"/>
<path d="M9.00958 26.8498C8.51351 23.6231 5.89896 21 2.63436 21L0.023741 21C0.436034 29.3729 5.99725 36.3918 13.6073 38.9568C12.7084 37.8211 11.9586 36.5084 11.3554 35.168C10.2911 32.803 9.4888 29.9669 9.00958 26.8498Z" fill="white"/>
<path d="M11.5835 27.1043C11.0161 23.7867 13.7789 21 17.1446 21L28.9881 21C28.7537 31.5811 24.8188 40 19.9992 40C16.1545 40 12.8729 34.6428 11.5835 27.1043Z" fill="white"/>
<path d="M31.4887 21C31.3751 26.4083 30.3433 31.3894 28.6429 35.168C28.0398 36.5084 27.29 37.8211 26.391 38.9568C34.0011 36.3918 39.5623 29.3729 39.9746 21L31.4887 21Z" fill="white"/>
<path d="M39.9438 18.5C39.3394 10.3486 33.8491 3.55695 26.391 1.04317C27.29 2.17892 28.0398 3.4916 28.6429 4.83195C30.2908 8.49386 31.3107 13.2851 31.4755 18.5L39.9438 18.5Z" fill="white"/>
</svg>
